<svg xmlns="http://www.w3.org/2000/svg" xmlns:xlink="http://www.w3.org/1999/xlink" width="1920" zoomAndPan="magnify" viewBox="0 0 1440 299.999988" height="400" preserveAspectRatio="xMidYMid meet" version="1.0"><defs><clipPath id="58db7ac8b8"><path d="M 0 0 L 563 0 L 563 300 L 0 300 Z M 0 0 " clip-rule="nonzero"/></clipPath><clipPath id="d311c0ed6b"><path d="M 540.65625 0 L -25.359375 0 L -25.359375 300 L 540.65625 300 L 563.15625 150 Z M 540.65625 0 " clip-rule="nonzero"/></clipPath><clipPath id="f03e3a492d"><path d="M 537.027344 0 L 615.777344 0 L 615.777344 300 L 537.027344 300 Z M 537.027344 0 " clip-rule="nonzero"/></clipPath><clipPath id="52c86fe1dc"><path d="M 615.777344 150.003906 L 537.027344 305.078125 L 537.027344 -5.066406 Z M 615.777344 150.003906 " clip-rule="nonzero"/></clipPath></defs><rect x="-144" width="1728" fill="#ffffff" y="-29.999999" height="359.999986" fill-opacity="1"/><rect x="-144" width="1728" fill="#ffffff" y="-29.999999" height="359.999986" fill-opacity="1"/><rect x="-144" width="1728" fill="#d2e0f1" y="-29.999999" height="359.999986" fill-opacity="1"/><g clip-path="url(#58db7ac8b8)"><g clip-path="url(#d311c0ed6b)"><path fill="#263545" d="M -25.359375 0 L 562.921875 0 L 562.921875 300 L -25.359375 300 Z M -25.359375 0 " fill-opacity="1" fill-rule="nonzero"/></g></g><g clip-path="url(#f03e3a492d)"><g clip-path="url(#52c86fe1dc)"><path fill="#263545" d="M 615.777344 -5.066406 L 615.777344 305.007812 L 537.027344 305.007812 L 537.027344 -5.066406 Z M 615.777344 -5.066406 " fill-opacity="1" fill-rule="nonzero"/></g></g></svg>